<?xml version="1.0" encoding="utf-8"?>
<!-- Generator: Adobe Illustrator 24.1.0, SVG Export Plug-In . SVG Version: 6.00 Build 0)  -->
<svg version="1.1" id="Capa_1" xmlns="http://www.w3.org/2000/svg" xmlns:xlink="http://www.w3.org/1999/xlink" x="0px" y="0px"
	 viewBox="0 0 194 24" style="enable-background:new 0 0 194 24;" xml:space="preserve">
<style type="text/css">
	.st0{fill:#FFCA02;}
	.st1{fill:#3F3F3F;}
	.st2{fill:#FFFFFF;}
	.st3{fill:#57585A;}
</style>
<g>
	<path class="st0" d="M16.18,23.58C26.97,19.16,19.65,2.7,19.65,2.7c-8.17,5.09-16.8,3.39-16.8,3.39S2.93,19.57,9.4,22.5
		C9.4,22.5,12.79,24.96,16.18,23.58z"/>
	<path class="st1" d="M17.26,0l-2,4.01l4.47-2c0,0,4.47,6.32,2.93,13.41c0,0,2.31,1.54,1.85,4.16l-2.47-2c0,0,0.62,1.7-1.7,4.16
		c0,0,11.4,1.23,13.1-16.64C33.44,5.09,24.66,5.39,17.26,0z"/>
	<path class="st2" d="M5.71,14.33c0,0,1.39-1.54,5.24-1.39C10.94,12.94,7.71,9.25,5.71,14.33z"/>
	<path class="st2" d="M20.15,11.59c0,0-1.82-0.99-5.4,0.44C14.75,12.03,16.56,7.47,20.15,11.59z"/>
	<path class="st2" d="M9.87,18.49c0.12-0.23,1.14,0.37,2.72,0.42c2.34,0.09,4.29-1.08,5.61-2.12c-0.03,2.11-1.47,3.89-3.39,4.31
		C11.9,21.75,9.67,18.88,9.87,18.49z"/>
	<path class="st2" d="M29.88,11.24c0,0-1.98,0.61-5.2-1.51C24.68,9.73,25.54,14.57,29.88,11.24z"/>
</g>
<g>
	<path class="st3" d="M40.34,14.28v7.4h-2.15V2.92h3.95c1,0,1.69,0.25,2.09,0.75c0.4,0.5,0.59,1.2,0.59,2.1v5.65
		c0,0.9-0.2,1.61-0.59,2.1c-0.4,0.5-1.09,0.75-2.09,0.75H40.34z M40.34,12.44h1.38c0.4,0,0.68-0.11,0.85-0.34
		c0.17-0.23,0.25-0.56,0.25-0.99V6.03c0-0.4-0.08-0.69-0.25-0.89s-0.45-0.3-0.85-0.3h-1.38V12.44z"/>
	<path class="st3" d="M45.76,21.68V2.92h5.14v1.92h-3.05v6.04h2.77v1.92h-2.77v6.95h3.22v1.92H45.76z"/>
	<path class="st3" d="M51.92,21.68V2.92h2.15v16.8h3.28v1.95H51.92z"/>
	<path class="st3" d="M58.24,21.68V2.92h2.15v18.75H58.24z"/>
	<path class="st3" d="M61.29,21.68v-1.95l4.18-14.88h-4.15V2.92h6.27v1.92l-4.12,14.91h4.24v1.92H61.29z"/>
	<path class="st3" d="M73.44,21.68v-7.82L70.72,2.92h2.12l1.61,7.23h0.11l1.55-7.23h2.06l-2.63,10.96v7.79H73.44z"/>
	<path class="st3" d="M86.11,8.66v-2.4c0-0.45-0.11-0.81-0.32-1.07c-0.22-0.26-0.55-0.4-1-0.4c-0.43,0-0.76,0.12-0.97,0.35
		c-0.22,0.24-0.32,0.54-0.32,0.92v2c0,0.55,0.05,0.95,0.16,1.2c0.1,0.25,0.31,0.52,0.61,0.8c0.24,0.25,0.51,0.48,0.79,0.71
		c0.28,0.23,0.57,0.44,0.86,0.65c0.29,0.21,0.57,0.42,0.83,0.64c0.26,0.22,0.49,0.43,0.68,0.64c0.32,0.34,0.55,0.72,0.71,1.14
		c0.15,0.42,0.23,0.99,0.23,1.71v2.74c0,1.15-0.27,2.02-0.82,2.61c-0.55,0.59-1.44,0.89-2.68,0.89c-1.24,0-2.14-0.31-2.7-0.92
		c-0.56-0.61-0.83-1.52-0.83-2.73v-2.09h2.01v2.26c0,1.02,0.48,1.52,1.44,1.52c0.9,0,1.36-0.46,1.36-1.38v-2.37
		c0-0.66-0.06-1.14-0.18-1.44c-0.12-0.3-0.35-0.61-0.69-0.93c-0.51-0.49-1.02-0.93-1.54-1.31c-0.52-0.39-0.97-0.83-1.37-1.34
		c-0.62-0.81-0.93-1.84-0.93-3.11V6.03c0-0.96,0.27-1.74,0.8-2.33c0.54-0.59,1.39-0.89,2.56-0.89c0.62,0,1.15,0.09,1.58,0.27
		c0.43,0.18,0.78,0.43,1.03,0.76c0.25,0.33,0.44,0.72,0.55,1.17c0.11,0.45,0.17,0.94,0.17,1.47v2.17H86.11z"/>
	<path class="st3" d="M89.36,21.68V2.92h5.14v1.92h-3.05v6.04h2.77v1.92h-2.77v6.95h3.22v1.92H89.36z"/>
	<path class="st3" d="M95.52,21.68V2.92h3.95c1,0,1.7,0.25,2.09,0.75c0.4,0.5,0.59,1.2,0.59,2.1v4.29c0,1.28-0.47,2.03-1.41,2.26
		v0.11c0.47,0.09,0.83,0.32,1.09,0.66c0.26,0.35,0.38,0.88,0.38,1.59v6.98h-2.09v-7.14c0-0.41-0.08-0.71-0.23-0.9
		c-0.15-0.19-0.43-0.28-0.85-0.28h-1.44v8.33H95.52z M100.12,6.03c0-0.79-0.38-1.19-1.13-1.19h-1.38v6.75h1.41
		c0.34,0,0.61-0.1,0.8-0.3s0.3-0.54,0.3-1.03V6.03z"/>
	<path class="st3" d="M103.2,21.68V2.92h2.15v18.75H103.2z"/>
	<path class="st3" d="M106.42,21.68V2.92h5.14v1.92h-3.05v6.04h2.77v1.92h-2.77v6.95h3.22v1.92H106.42z"/>
	<path class="st3" d="M117.29,8.66v-2.4c0-0.45-0.11-0.81-0.33-1.07c-0.22-0.26-0.55-0.4-1-0.4c-0.43,0-0.76,0.12-0.97,0.35
		c-0.22,0.24-0.33,0.54-0.33,0.92v2c0,0.55,0.05,0.95,0.16,1.2c0.1,0.25,0.31,0.52,0.61,0.8c0.24,0.25,0.51,0.48,0.79,0.71
		s0.57,0.44,0.86,0.65c0.29,0.21,0.57,0.42,0.83,0.64c0.26,0.22,0.49,0.43,0.68,0.64c0.32,0.34,0.55,0.72,0.71,1.14
		c0.15,0.42,0.23,0.99,0.23,1.71v2.74c0,1.15-0.27,2.02-0.82,2.61s-1.44,0.89-2.68,0.89c-1.24,0-2.14-0.31-2.7-0.92
		c-0.56-0.61-0.83-1.52-0.83-2.73v-2.09h2v2.26c0,1.02,0.48,1.52,1.44,1.52c0.9,0,1.36-0.46,1.36-1.38v-2.37
		c0-0.66-0.06-1.14-0.18-1.44c-0.12-0.3-0.35-0.61-0.69-0.93c-0.51-0.49-1.02-0.93-1.54-1.31c-0.52-0.39-0.97-0.83-1.37-1.34
		c-0.62-0.81-0.93-1.84-0.93-3.11V6.03c0-0.96,0.27-1.74,0.81-2.33c0.54-0.59,1.39-0.89,2.56-0.89c0.62,0,1.15,0.09,1.58,0.27
		c0.43,0.18,0.78,0.43,1.03,0.76c0.25,0.33,0.44,0.72,0.55,1.17c0.11,0.45,0.17,0.94,0.17,1.47v2.17H117.29z"/>
</g>
</svg>
